<?xml version="1.0" encoding="UTF-8" standalone="no"?>
<!DOCTYPE svg PUBLIC "-//W3C//DTD SVG 1.1//EN"
"http://www.w3.org/Graphics/SVG/1.1/DTD/svg11.dtd">
<svg viewBox="0 0 909 1286" version="1.1" xmlns="http://www.w3.org/2000/svg" xmlns:xlink="http://www.w3.org/1999/xlink">
<defs>
<clipPath id="c0_4"><path d="M209,512.7V339.5H450.8V512.7Z"/></clipPath>
<clipPath id="c1_4"><path d="M576.3,691.8V525.3H794V691.8Z"/></clipPath>
<clipPath id="c2_4"><path d="M586.2,314.6V128.5H784.1V314.6Z"/></clipPath>
<clipPath id="c3_4"><path d="M170.2,877.9V711.4H489.5V877.9Z"/></clipPath>
<clipPath id="c4_4"><path d="M224.1,1244.7V1084.8H435.7v159.9Z"/></clipPath>
<clipPath id="c5_4"><path d="M575.9,1062.7V905.3H794.4v157.4Z"/></clipPath>
<clipPath id="c6_4"><path d="M216.6,120.7c-15.7,0,-28.4,-12.8,-28.4,-28.5c0,-15.7,12.7,-28.4,28.4,-28.4c15.7,0,28.4,12.7,28.4,28.4c0,15.7,-12.7,28.5,-28.4,28.5Z"/></clipPath>
<style type="text/css"><![CDATA[
.g0_4{
fill: #873496;
}
.g1_4{
fill: #008FD5;
}
.g2_4{
fill: #707070;
}
.g3_4{
fill: #FFFFFF;
}
.g4_4{
fill: #0160AE;
}
.g5_4{
fill: #F15921;
}
.g6_4{
fill: none;
stroke: #23408D;
stroke-width: 0.763;
stroke-linecap: round;
stroke-linejoin: round;
stroke-miterlimit: 2;
}
]]></style>
</defs>
<path fill-rule="evenodd" d="M551.9,1108.2H818.3c7.9,0,14.3,6.4,14.3,14.3c0,7.8,-6.4,14.3,-14.3,14.3H551.9c-7.8,0,-14.3,-6.5,-14.3,-14.3c0,-7.9,6.5,-14.3,14.3,-14.3Z" class="g0_4"/>
<path fill-rule="evenodd" d="M551.9,356.1H818.3c7.9,0,14.3,6.5,14.3,14.4c0,7.8,-6.4,14.3,-14.3,14.3H551.9c-7.8,0,-14.3,-6.5,-14.3,-14.3c0,-7.9,6.5,-14.4,14.3,-14.4Z" class="g0_4"/>
<path fill-rule="evenodd" d="M196.7,151.4H463.1c7.8,0,14.3,6.5,14.3,14.4c0,7.8,-6.5,14.3,-14.3,14.3H196.7c-7.9,0,-14.3,-6.5,-14.3,-14.3c0,-7.9,6.4,-14.4,14.3,-14.4Z" class="g0_4"/>
<path fill-rule="evenodd" d="M748.6,327.4H252.7c-.8,0,-1.4,-.6,-1.4,-1.4c0,-.7,.6,-1.4,1.4,-1.4H748.6c.7,0,1.4,.7,1.4,1.4c0,.8,-.7,1.4,-1.4,1.4Z" class="g1_4"/>
<path fill-rule="evenodd" d="M637.2,320.4H364c-3,0,-5.6,2.5,-5.6,5.6c0,3.1,2.6,5.6,5.6,5.6H637.2c3.1,0,5.6,-2.5,5.6,-5.6c0,-3.1,-2.5,-5.6,-5.6,-5.6Z" class="g2_4"/>
<path fill-rule="evenodd" d="M748.6,515.4H252.7c-.8,0,-1.4,-.6,-1.4,-1.4c0,-.7,.6,-1.4,1.4,-1.4H748.6c.7,0,1.4,.7,1.4,1.4c0,.8,-.7,1.4,-1.4,1.4Z" class="g1_4"/>
<path fill-rule="evenodd" d="M637.2,508.4H364c-3,0,-5.6,2.5,-5.6,5.6c0,3.1,2.6,5.6,5.6,5.6H637.2c3.1,0,5.6,-2.5,5.6,-5.6c0,-3.1,-2.5,-5.6,-5.6,-5.6Z" class="g2_4"/>
<path fill-rule="evenodd" d="M748.6,703.4H252.7c-.8,0,-1.4,-.6,-1.4,-1.4c0,-.7,.6,-1.3,1.4,-1.3H748.6c.7,0,1.4,.6,1.4,1.3c0,.8,-.7,1.4,-1.4,1.4Z" class="g1_4"/>
<path fill-rule="evenodd" d="M637.2,696.4H364c-3,0,-5.6,2.6,-5.6,5.6c0,3.1,2.6,5.7,5.6,5.7H637.2c3.1,0,5.6,-2.6,5.6,-5.7c0,-3,-2.5,-5.6,-5.6,-5.6Z" class="g2_4"/>
<path fill-rule="evenodd" d="M748.6,1079.4H252.7c-.8,0,-1.4,-.6,-1.4,-1.3c0,-.8,.6,-1.4,1.4,-1.4H748.6c.7,0,1.4,.6,1.4,1.4c0,.7,-.7,1.3,-1.4,1.3Z" class="g1_4"/>
<path fill-rule="evenodd" d="M637.2,1072.5H364c-3,0,-5.6,2.5,-5.6,5.6c0,3.1,2.6,5.6,5.6,5.6H637.2c3.1,0,5.6,-2.5,5.6,-5.6c0,-3.1,-2.5,-5.6,-5.6,-5.6Z" class="g2_4"/>
<image clip-path="url(#c0_4)" preserveAspectRatio="none" x="209" y="339" width="242" height="174" xlink:href="img/1.png"/>
<image clip-path="url(#c1_4)" preserveAspectRatio="none" x="576" y="525" width="218" height="167" xlink:href="img/2.png"/>
<image clip-path="url(#c2_4)" preserveAspectRatio="none" x="586" y="129" width="198" height="186" xlink:href="img/3.png"/>
<path fill-rule="evenodd" d="M551.9,732.1H818.3c7.9,0,14.3,6.5,14.3,14.3c0,7.9,-6.4,14.3,-14.3,14.3H551.9c-7.8,0,-14.3,-6.4,-14.3,-14.3c0,-7.8,6.5,-14.3,14.3,-14.3Z" class="g0_4"/>
<path fill-rule="evenodd" d="M196.7,540.9H463.1c7.8,0,14.3,6.4,14.3,14.3c0,7.8,-6.5,14.3,-14.3,14.3H196.7c-7.9,0,-14.3,-6.5,-14.3,-14.3c0,-7.9,6.4,-14.3,14.3,-14.3Z" class="g0_4"/>
<path d="M754.4,741.2v-4.9h-1.7v-.6h4.2v.6h-1.7v4.9Zm3.3,0v-5.5h1l1.3,3.9c.1,.3,.2,.6,.3,.8c0,-.2,.1,-.5,.3,-.9l1.3,-3.8h.9v5.5h-.7v-4.6l-1.6,4.6h-.6l-1.6,-4.7v4.7Z" class="g3_4"/>
<image clip-path="url(#c3_4)" preserveAspectRatio="none" x="170" y="711" width="320" height="167" xlink:href="img/4.png"/>
<image clip-path="url(#c4_4)" preserveAspectRatio="none" x="224" y="1085" width="212" height="160" xlink:href="img/5.png"/>
<path fill-rule="evenodd" d="M525.3,23.5h4.1c.6,0,1.1,.5,1.1,1.1V71.2c0,.6,-.5,1.1,-1.1,1.1h-4.1c-.6,0,-1,-.5,-1,-1.1V24.6c0,-.6,.4,-1.1,1,-1.1Z" class="g4_4"/>
<path fill-rule="evenodd" d="M524.8,29.3c-2.8,-.3,-5.7,-.2,-8.5,.2c-1.9,.3,-3.8,.8,-5.5,1.5c-.2,.1,-.5,0,-.6,-.2c-.1,-.1,0,-.4,.2,-.5c5.3,-2.6,12,-3.4,18,-2.8c7.6,.8,22,5.7,20.2,15.3c-1.1,6.2,-9.2,9.4,-15,10.5c-.2,0,-.4,-.1,-.5,-.3c0,-.2,.1,-.4,.3,-.5c4.2,-1.5,8.8,-4.4,9.7,-8.9C544.7,34.6,532.2,30,524.8,29.3Z" class="g4_4"/>
<path fill-rule="evenodd" d="M831.3,26.6C830,32.4,815.2,38.2,796.6,40c-19,1.8,-35,-1.4,-36.7,-7.1c8,2.3,21.5,3,36.6,1.6c14.5,-1.4,27.1,-4.4,34.8,-7.9Z" class="g5_4"/>
<path fill-rule="evenodd" d="M196.7,920.2H463.1c7.8,0,14.3,6.4,14.3,14.3c0,7.9,-6.5,14.3,-14.3,14.3H196.7c-7.9,0,-14.3,-6.4,-14.3,-14.3c0,-7.9,6.4,-14.3,14.3,-14.3Z" class="g0_4"/>
<path fill-rule="evenodd" d="M748.6,891.4H252.7c-.8,0,-1.4,-.6,-1.4,-1.3c0,-.8,.6,-1.4,1.4,-1.4H748.6c.7,0,1.4,.6,1.4,1.4c0,.7,-.7,1.3,-1.4,1.3Z" class="g1_4"/>
<path fill-rule="evenodd" d="M637.2,884.4H364c-3,0,-5.6,2.6,-5.6,5.7c0,3,2.6,5.6,5.6,5.6H637.2c3.1,0,5.6,-2.6,5.6,-5.6c0,-3.1,-2.5,-5.7,-5.6,-5.7Z" class="g2_4"/>
<path d="M341.8,929.8V924h-2.1v-.8h5.1v.8h-2.1v5.8Zm3.9,0v-6.6h1.2l1.6,4.7c.1,.4,.2,.7,.3,.9c.1,-.2,.2,-.5,.3,-1l1.6,-4.6h1.1v6.6H351v-5.5l-1.9,5.5h-.7l-1.9,-5.6v5.6Z" class="g3_4"/>
<image clip-path="url(#c5_4)" preserveAspectRatio="none" x="576" y="905" width="219" height="158" xlink:href="img/6.png"/>
<image x="178" y="54" width="77" height="76" xlink:href="shade/1.png"/>
<path d="M242.2,120.4l-7.1,-2l-3.4,8.7l-6.1,-4.2l-6,7.1l-4.4,-5.9l-8.1,4.7l-2.2,-7l-9.1,1.9l.1,-7.4l-9.2,-1.2l2.5,-6.9l-8.3,-4.1l4.6,-5.7L179,91.8l6.2,-3.9l-4,-8.4l7.1,-1.6l-1.1,-9.3l7.3,.8l2,-9.1l6.7,3.1l4.8,-8l5.3,5.1l7.1,-6l3.4,6.5l8.7,-3.3l1,7.3l9.3,-.4l-1.4,7.2l9,2.7l-3.7,6.4l7.6,5.5l-5.5,4.8l5.3,7.7l-6.8,2.8l2.7,8.9l-7.4,.4Z" class="g6_4"/>
<image clip-path="url(#c6_4)" preserveAspectRatio="none" x="188" y="64" width="57" height="57" xlink:href="img/7.jpg"/>
<image x="206" y="114" width="21" height="3" xlink:href="shade/2.png"/>
<image x="206" y="108" width="21" height="6" xlink:href="shade/3.png"/>
</svg>