<?xml version="1.0" encoding="UTF-8" standalone="no"?>
<!DOCTYPE svg PUBLIC "-//W3C//DTD SVG 1.1//EN"
"http://www.w3.org/Graphics/SVG/1.1/DTD/svg11.dtd">
<svg viewBox="0 0 909 1286" version="1.1" xmlns="http://www.w3.org/2000/svg" xmlns:xlink="http://www.w3.org/1999/xlink">
<defs>
<clipPath id="c0_7"><path d="M273.5,502.9V336.3h126V502.9Z"/></clipPath>
<clipPath id="c1_7"><path d="M536.1,314.3V147.7H847.4V314.3Z"/></clipPath>
<clipPath id="c2_7"><path d="M226,1250V1083.5H447V1250Z"/></clipPath>
<clipPath id="c3_7"><path d="M592.6,691.8V525.3H790.9V691.8Z"/></clipPath>
<clipPath id="c4_7"><path d="M290,877.8V711.2h93V877.8Z"/></clipPath>
<clipPath id="c5_7"><path d="M597.9,1071.1V894.9H785.5v176.2Z"/></clipPath>
<clipPath id="c6_7"><path d="M805,120.7c-15.7,0,-28.4,-12.8,-28.4,-28.5c0,-15.7,12.7,-28.4,28.4,-28.4c15.7,0,28.5,12.7,28.5,28.4c0,15.7,-12.8,28.5,-28.5,28.5Z"/></clipPath>
<style type="text/css"><![CDATA[
.g0_7{
fill: #397123;
}
.g1_7{
fill: #707070;
}
.g2_7{
fill: #FFFFFF;
}
.g3_7{
fill: #0160AE;
}
.g4_7{
fill: #F15921;
}
.g5_7{
fill: none;
stroke: #23408D;
stroke-width: 0.763;
stroke-linecap: round;
stroke-linejoin: round;
stroke-miterlimit: 2;
}
]]></style>
</defs>
<path fill-rule="evenodd" d="M755.2,327.4H259.3c-.8,0,-1.4,-.6,-1.4,-1.4c0,-.7,.6,-1.4,1.4,-1.4H755.2c.7,0,1.4,.7,1.4,1.4c0,.8,-.7,1.4,-1.4,1.4Z" class="g0_7"/>
<path fill-rule="evenodd" d="M643.8,320.4H370.6c-3,0,-5.6,2.5,-5.6,5.6c0,3.1,2.6,5.6,5.6,5.6H643.8c3.1,0,5.6,-2.5,5.6,-5.6c0,-3.1,-2.5,-5.6,-5.6,-5.6Z" class="g1_7"/>
<path fill-rule="evenodd" d="M469.7,151.4H203.3c-7.9,0,-14.3,6.5,-14.3,14.4c0,7.8,6.4,14.3,14.3,14.3H469.7c7.8,0,14.3,-6.5,14.3,-14.3c0,-7.9,-6.5,-14.4,-14.3,-14.4Z" class="g0_7"/>
<path fill-rule="evenodd" d="M755.2,515.4H259.3c-.8,0,-1.4,-.6,-1.4,-1.4c0,-.7,.6,-1.4,1.4,-1.4H755.2c.7,0,1.4,.7,1.4,1.4c0,.8,-.7,1.4,-1.4,1.4Z" class="g0_7"/>
<path fill-rule="evenodd" d="M643.8,508.4H370.6c-3,0,-5.6,2.5,-5.6,5.6c0,3.1,2.6,5.6,5.6,5.6H643.8c3.1,0,5.6,-2.5,5.6,-5.6c0,-3.1,-2.5,-5.6,-5.6,-5.6Z" class="g1_7"/>
<path fill-rule="evenodd" d="M755.2,703.4H259.3c-.8,0,-1.4,-.6,-1.4,-1.4c0,-.7,.6,-1.3,1.4,-1.3H755.2c.7,0,1.4,.6,1.4,1.3c0,.8,-.7,1.4,-1.4,1.4Z" class="g0_7"/>
<path fill-rule="evenodd" d="M643.8,696.4H370.6c-3,0,-5.6,2.6,-5.6,5.6c0,3.1,2.6,5.7,5.6,5.7H643.8c3.1,0,5.6,-2.6,5.6,-5.7c0,-3,-2.5,-5.6,-5.6,-5.6Z" class="g1_7"/>
<path fill-rule="evenodd" d="M824.9,356.1H558.5c-7.8,0,-14.3,6.5,-14.3,14.4c0,7.8,6.5,14.3,14.3,14.3H824.9c7.9,0,14.3,-6.5,14.3,-14.3c0,-7.9,-6.4,-14.4,-14.3,-14.4Z" class="g0_7"/>
<path fill-rule="evenodd" d="M469.7,540.9H203.3c-7.9,0,-14.3,6.4,-14.3,14.3c0,7.8,6.4,14.3,14.3,14.3H469.7c7.8,0,14.3,-6.5,14.3,-14.3c0,-7.9,-6.5,-14.3,-14.3,-14.3Z" class="g0_7"/>
<path fill-rule="evenodd" d="M824.9,732.1H558.5c-7.8,0,-14.3,6.5,-14.3,14.3c0,7.9,6.5,14.3,14.3,14.3H824.9c7.9,0,14.3,-6.4,14.3,-14.3c0,-7.8,-6.4,-14.3,-14.3,-14.3Z" class="g0_7"/>
<path fill-rule="evenodd" d="M469.7,920.2H203.3c-7.9,0,-14.3,6.4,-14.3,14.3c0,7.9,6.4,14.3,14.3,14.3H469.7c7.8,0,14.3,-6.4,14.3,-14.3c0,-7.9,-6.5,-14.3,-14.3,-14.3Z" class="g0_7"/>
<path fill-rule="evenodd" d="M755.2,1079.4H259.3c-.8,0,-1.4,-.6,-1.4,-1.3c0,-.8,.6,-1.4,1.4,-1.4H755.2c.7,0,1.4,.6,1.4,1.4c0,.7,-.7,1.3,-1.4,1.3Z" class="g0_7"/>
<path fill-rule="evenodd" d="M643.8,1072.5H370.6c-3,0,-5.6,2.5,-5.6,5.6c0,3.1,2.6,5.6,5.6,5.6H643.8c3.1,0,5.6,-2.5,5.6,-5.6c0,-3.1,-2.5,-5.6,-5.6,-5.6Z" class="g1_7"/>
<path fill-rule="evenodd" d="M558.5,1108.2H824.9c7.9,0,14.3,6.4,14.3,14.3c0,7.8,-6.4,14.3,-14.3,14.3H558.5c-7.8,0,-14.3,-6.5,-14.3,-14.3c0,-7.9,6.5,-14.3,14.3,-14.3Z" class="g0_7"/>
<image clip-path="url(#c0_7)" preserveAspectRatio="none" x="273" y="336" width="127" height="167" xlink:href="img/1.png"/>
<image clip-path="url(#c1_7)" preserveAspectRatio="none" x="536" y="148" width="311" height="166" xlink:href="img/2.png"/>
<path d="M203.3,940.9c-1.1,0,-2.1,-.3,-3,-.9c-.9,-.5,-1.6,-1.3,-2.1,-2.4c-.5,-1,-.8,-2.1,-.8,-3.4c0,-1.3,.3,-2.4,.8,-3.4c.5,-1,1.2,-1.8,2.1,-2.4c.9,-.6,1.9,-.9,3,-.9c1.1,0,2.1,.3,3,.9c.9,.6,1.6,1.4,2.1,2.4c.5,1,.7,2.1,.7,3.4c0,1.3,-.2,2.4,-.7,3.4c-.5,1.1,-1.2,1.9,-2.1,2.4c-.9,.6,-1.9,.9,-3,.9Zm0,-2.6c.6,0,1.2,-.1,1.7,-.5c.5,-.3,.9,-.8,1.2,-1.4c.3,-.7,.4,-1.4,.4,-2.2c0,-.8,-.1,-1.5,-.4,-2.1c-.3,-.7,-.7,-1.1,-1.2,-1.5c-.5,-.4,-1.1,-.5,-1.7,-.5c-.7,0,-1.2,.1,-1.7,.5c-.6,.4,-1,.8,-1.2,1.5c-.3,.6,-.5,1.3,-.5,2.1c0,.8,.2,1.5,.5,2.2c.2,.6,.6,1.1,1.2,1.4c.5,.4,1,.5,1.7,.5Zm9.8,-8.1h-3.4v-2.5H219v2.5h-3.4v10.5h-2.5Zm15.5,8.1v2.4h-8.3v-13h8.1v2.4h-5.6V933h5v2.3h-5v3Zm9.2,-4.3h2.3v5.3c-.6,.5,-1.3,.9,-2,1.2c-.8,.3,-1.6,.4,-2.3,.4c-1.1,0,-2.2,-.3,-3,-.9c-.9,-.5,-1.6,-1.3,-2.1,-2.3c-.5,-1.1,-.8,-2.2,-.8,-3.5c0,-1.3,.3,-2.4,.8,-3.4c.5,-1.1,1.2,-1.8,2.1,-2.4c.9,-.6,1.9,-.9,3,-.9c1,0,1.8,.2,2.6,.6c.7,.4,1.4,.9,1.9,1.7l-1.6,1.7c-.8,-.9,-1.7,-1.4,-2.8,-1.4c-.7,0,-1.3,.1,-1.8,.5c-.5,.3,-.9,.8,-1.2,1.4c-.3,.7,-.5,1.4,-.5,2.2c0,.8,.2,1.5,.5,2.2c.3,.6,.7,1.1,1.2,1.4c.5,.4,1.1,.5,1.8,.5c.7,0,1.4,-.1,1.9,-.5Zm4.6,-6.3h2.5v13h-2.5Zm4.6,6.6h4.3v2.3H247Zm11,-6.6c.9,0,1.8,.2,2.5,.6c.7,.4,1.2,.9,1.6,1.6c.4,.7,.5,1.6,.5,2.5c0,1,-.1,1.8,-.5,2.5c-.4,.7,-.9,1.3,-1.6,1.6c-.7,.4,-1.6,.6,-2.5,.6h-2.2v3.6h-2.5v-13Zm-.2,7c.8,0,1.4,-.2,1.8,-.6c.3,-.4,.5,-.9,.5,-1.7c0,-.7,-.2,-1.2,-.5,-1.6c-.4,-.4,-1,-.6,-1.8,-.6h-2v4.5Zm13.4,6l-2,-3.6h-2.3v3.6h-2.5v-13h4.7c.9,0,1.7,.2,2.4,.6c.7,.4,1.3,.9,1.6,1.6c.4,.7,.6,1.6,.6,2.5c0,1,-.2,1.8,-.6,2.5c-.3,.7,-.9,1.3,-1.6,1.6l2.4,4.2Zm0,-8.3c0,-.7,-.2,-1.2,-.6,-1.6c-.4,-.4,-.9,-.6,-1.7,-.6h-2v4.5h2c.8,0,1.3,-.2,1.7,-.6c.4,-.4,.6,-.9,.6,-1.7Zm9.7,8.5c-1.1,0,-2.1,-.3,-3,-.9c-.9,-.5,-1.6,-1.3,-2.1,-2.4c-.5,-1,-.8,-2.1,-.8,-3.4c0,-1.3,.3,-2.4,.8,-3.4c.5,-1,1.2,-1.8,2.1,-2.4c.9,-.6,1.9,-.9,3,-.9c1.1,0,2.1,.3,3,.9c.9,.6,1.6,1.4,2.1,2.4c.5,1,.7,2.1,.7,3.4c0,1.3,-.2,2.4,-.7,3.4c-.5,1.1,-1.2,1.9,-2.1,2.4c-.9,.6,-1.9,.9,-3,.9Zm0,-2.6c.6,0,1.2,-.1,1.7,-.5c.5,-.3,.9,-.8,1.2,-1.4c.3,-.7,.4,-1.4,.4,-2.2c0,-.8,-.1,-1.5,-.4,-2.1c-.3,-.7,-.7,-1.1,-1.2,-1.5c-.5,-.4,-1.1,-.5,-1.7,-.5c-.7,0,-1.2,.1,-1.7,.5c-.6,.4,-1,.8,-1.3,1.5c-.2,.6,-.4,1.3,-.4,2.1c0,.8,.2,1.5,.4,2.2c.3,.6,.7,1.1,1.3,1.4c.5,.4,1,.5,1.7,.5Zm19.5,6c-.7,-1.2,-1.1,-2.5,-1.5,-3.9c-.3,-1.5,-.5,-3.1,-.5,-4.8c0,-1.7,.2,-3.3,.5,-4.7c.4,-1.5,.8,-2.8,1.5,-3.9h2.2c-.6,1.3,-1.1,2.7,-1.4,4.1c-.3,1.4,-.4,2.9,-.4,4.5c0,1.6,.1,3.1,.4,4.5c.3,1.4,.8,2.8,1.4,4.2Zm8.8,-3.4c-1.1,0,-2.1,-.3,-3,-.9c-.9,-.5,-1.5,-1.3,-2.1,-2.3c-.5,-1.1,-.7,-2.2,-.7,-3.5c0,-1.3,.2,-2.4,.7,-3.4c.6,-1.1,1.2,-1.8,2.1,-2.4c.9,-.6,1.9,-.9,3,-.9c.9,0,1.8,.2,2.5,.6c.8,.4,1.4,1,1.9,1.7l-1.6,1.8c-.7,-1,-1.6,-1.5,-2.7,-1.5c-.6,0,-1.2,.1,-1.7,.5c-.6,.4,-1,.8,-1.3,1.5c-.3,.6,-.4,1.3,-.4,2.1c0,.8,.1,1.5,.4,2.2c.3,.6,.7,1.1,1.3,1.4c.5,.4,1.1,.5,1.7,.5c1.1,0,2,-.5,2.7,-1.5l1.6,1.8c-.5,.7,-1.1,1.3,-1.9,1.7c-.7,.4,-1.6,.6,-2.5,.6Zm5,3.4c.6,-1.4,1.1,-2.8,1.4,-4.2c.3,-1.4,.4,-2.9,.4,-4.5c0,-1.6,-.1,-3.1,-.4,-4.5c-.3,-1.4,-.8,-2.8,-1.4,-4.1h2.3c.6,1.1,1.1,2.4,1.4,3.8c.3,1.5,.5,3.1,.5,4.8c0,1.7,-.2,3.3,-.5,4.8c-.3,1.4,-.8,2.7,-1.4,3.9Zm15.6,-16.6c.9,0,1.7,.2,2.4,.6c.7,.4,1.3,.9,1.7,1.6c.3,.7,.5,1.6,.5,2.5c0,1,-.2,1.8,-.5,2.5c-.4,.7,-1,1.3,-1.7,1.6c-.7,.4,-1.5,.6,-2.4,.6h-2.2v3.6h-2.5v-13Zm-.2,7c.8,0,1.3,-.2,1.7,-.6c.4,-.4,.6,-.9,.6,-1.7c0,-.7,-.2,-1.2,-.6,-1.6c-.4,-.4,-.9,-.6,-1.7,-.6h-2v4.5Zm13.4,6l-2,-3.6h-2.3v3.6h-2.5v-13h4.6c1,0,1.8,.2,2.5,.6c.7,.4,1.2,.9,1.6,1.6c.4,.7,.6,1.6,.6,2.5c0,1,-.2,1.8,-.6,2.5c-.4,.7,-.9,1.3,-1.6,1.6l2.4,4.2Zm0,-8.3c0,-.7,-.2,-1.2,-.6,-1.6c-.4,-.4,-1,-.6,-1.7,-.6h-2v4.5h2c.7,0,1.3,-.2,1.7,-.6c.4,-.4,.6,-.9,.6,-1.7Zm9.6,8.5c-1.1,0,-2.1,-.3,-3,-.9c-.9,-.5,-1.6,-1.3,-2.1,-2.4c-.5,-1,-.7,-2.1,-.7,-3.4c0,-1.3,.2,-2.4,.7,-3.4c.5,-1,1.2,-1.8,2.1,-2.4c.9,-.6,1.9,-.9,3,-.9c1.2,0,2.2,.3,3,.9c.9,.6,1.6,1.4,2.1,2.4c.6,1,.8,2.1,.8,3.4c0,1.3,-.2,2.4,-.8,3.4c-.5,1.1,-1.2,1.9,-2.1,2.4c-.8,.6,-1.8,.9,-3,.9Zm0,-2.6c.7,0,1.3,-.1,1.8,-.5c.5,-.3,.9,-.8,1.2,-1.4c.3,-.7,.4,-1.4,.4,-2.2c0,-.8,-.1,-1.5,-.4,-2.1c-.3,-.7,-.7,-1.1,-1.2,-1.5c-.5,-.4,-1.1,-.5,-1.8,-.5c-.6,0,-1.2,.1,-1.7,.5c-.5,.4,-.9,.8,-1.2,1.5c-.3,.6,-.4,1.3,-.4,2.1c0,.8,.1,1.5,.4,2.2c.3,.6,.7,1.1,1.2,1.4c.5,.4,1.1,.5,1.7,.5Zm9.9,-8.1H359v-2.5h9.4v2.5h-3.5v10.5h-2.4Zm15.5,8.1v2.4h-8.3v-13h8.1v2.4h-5.6V933h5v2.3h-5v3Zm2,-10.6h2.5v13H380Zm14.9,0v13h-2.1l-5.3,-7.9v7.9H385v-13h2.1l5.3,7.9v-7.9Zm11.5,0c.9,0,1.8,.2,2.5,.6c.7,.4,1.2,.9,1.6,1.6c.3,.7,.5,1.6,.5,2.5c0,1,-.2,1.8,-.5,2.5c-.4,.7,-.9,1.3,-1.6,1.6c-.7,.4,-1.6,.6,-2.5,.6h-2.2v3.6h-2.5v-13Zm-.2,7c.8,0,1.4,-.2,1.7,-.6c.4,-.4,.6,-.9,.6,-1.7c0,-.7,-.2,-1.2,-.6,-1.6c-.3,-.4,-.9,-.6,-1.7,-.6h-2v4.5Zm11.9,6.2c-1.1,0,-2.1,-.3,-3,-.9c-.9,-.5,-1.6,-1.3,-2.1,-2.4c-.5,-1,-.7,-2.1,-.7,-3.4c0,-1.3,.2,-2.4,.7,-3.4c.5,-1,1.2,-1.8,2.1,-2.4c.9,-.6,1.9,-.9,3,-.9c1.2,0,2.2,.3,3.1,.9c.8,.6,1.5,1.4,2.1,2.4c.5,1,.7,2.1,.7,3.4c0,1.3,-.2,2.4,-.7,3.4c-.6,1.1,-1.3,1.9,-2.1,2.4c-.9,.6,-1.9,.9,-3.1,.9Zm0,-2.6c.7,0,1.3,-.1,1.8,-.5c.5,-.3,.9,-.8,1.2,-1.4c.3,-.7,.4,-1.4,.4,-2.2c0,-.8,-.1,-1.5,-.4,-2.1c-.3,-.7,-.7,-1.1,-1.2,-1.5c-.5,-.4,-1.1,-.5,-1.8,-.5c-.6,0,-1.2,.1,-1.7,.5c-.5,.4,-.9,.8,-1.2,1.5c-.3,.6,-.4,1.3,-.4,2.1c0,.8,.1,1.5,.4,2.2c.3,.6,.7,1.1,1.2,1.4c.5,.4,1.1,.5,1.7,.5Zm23.6,-10.6l-3.5,13h-2.6l-2.4,-8.8l-2.4,8.8h-2.7l-3.5,-13h2.6l2.4,9.1l2.5,-9.1h2.3l2.5,9.2l2.5,-9.2Zm1.4,0H448c1.2,0,2.2,.3,3.1,.8c.9,.6,1.6,1.3,2.1,2.3c.5,1,.7,2.1,.7,3.4c0,1.3,-.2,2.4,-.7,3.4c-.5,1,-1.2,1.7,-2.1,2.3c-.9,.5,-1.9,.8,-3.1,.8h-4.9Zm4.8,10.5c1.1,0,1.9,-.3,2.5,-1.1c.7,-.7,1,-1.7,1,-2.9c0,-1.2,-.3,-2.2,-1,-2.9c-.6,-.7,-1.4,-1.1,-2.5,-1.1h-2.3v8Zm16.2,.1v2.4h-8.3v-13h8.1v2.4h-5.6V933h4.9v2.3h-4.9v3Zm8.8,2.4l-2.1,-3.6h-2.2v3.6h-2.5v-13h4.6c1,0,1.8,.2,2.5,.6c.7,.4,1.2,.9,1.6,1.6c.4,.7,.6,1.6,.6,2.5c0,1,-.2,1.8,-.6,2.5c-.4,.7,-.9,1.3,-1.6,1.6l2.4,4.2Zm0,-8.3c0,-.7,-.2,-1.2,-.6,-1.6c-.4,-.4,-1,-.6,-1.7,-.6h-2v4.5h2c.7,0,1.3,-.2,1.7,-.6c.4,-.4,.6,-.9,.6,-1.7ZM290.2,924.7c.4,0,.9,.2,1.4,.5c.4,.2,.8,.7,1,1.2c.3,.6,.4,1.1,.4,1.7c0,.6,-.1,1.2,-.4,1.7c-.2,.6,-.6,1,-1,1.3c-.5,.3,-.9,.4,-1.4,.4c-.5,0,-1,-.1,-1.4,-.4c-.5,-.3,-.8,-.7,-1.1,-1.3c-.2,-.5,-.4,-1.1,-.4,-1.7c0,-.6,.2,-1.1,.4,-1.7c.3,-.5,.6,-1,1.1,-1.2c.4,-.3,.9,-.5,1.4,-.5Zm0,.6c-.4,0,-.8,.1,-1.2,.3c-.4,.3,-.7,.6,-.9,1.1c-.2,.5,-.3,.9,-.3,1.4c0,.5,.1,1,.3,1.4c.2,.5,.5,.8,.9,1.1c.4,.2,.8,.4,1.2,.4c.4,0,.8,-.2,1.1,-.4c.4,-.3,.7,-.6,.9,-1.1c.2,-.4,.3,-.9,.3,-1.4c0,-.5,-.1,-.9,-.3,-1.4c-.2,-.5,-.5,-.8,-.9,-1.1c-.4,-.2,-.7,-.3,-1.1,-.3Zm-1.3,4.7v-3.7H290c.3,0,.6,.1,.7,.1c.2,.1,.3,.2,.4,.4c.1,.2,.2,.3,.2,.5c0,.3,-.1,.5,-.3,.7c-.1,.2,-.3,.3,-.6,.4c.1,0,.2,.1,.3,.2c.1,.1,.2,.3,.4,.7l.4,.7h-.6l-.3,-.6c-.2,-.4,-.4,-.7,-.5,-.8c-.1,-.1,-.2,-.2,-.4,-.2h-.3V930Zm.5,-2.1h.6c.3,0,.5,0,.6,-.1c.1,-.1,.2,-.3,.2,-.4c0,-.1,-.1,-.2,-.1,-.3c-.1,-.1,-.1,-.2,-.2,-.2c-.1,0,-.3,-.1,-.5,-.1h-.6Z" class="g2_7"/>
<image clip-path="url(#c2_7)" preserveAspectRatio="none" x="226" y="1083" width="221" height="167" xlink:href="img/3.png"/>
<image clip-path="url(#c3_7)" preserveAspectRatio="none" x="593" y="525" width="198" height="167" xlink:href="img/4.png"/>
<image clip-path="url(#c4_7)" preserveAspectRatio="none" x="290" y="711" width="93" height="167" xlink:href="img/5.png"/>
<image clip-path="url(#c5_7)" preserveAspectRatio="none" x="598" y="895" width="188" height="176" xlink:href="img/6.jpg"/>
<path fill-rule="evenodd" d="M755.2,891.4H259.3c-.8,0,-1.4,-.6,-1.4,-1.3c0,-.8,.6,-1.4,1.4,-1.4H755.2c.7,0,1.4,.6,1.4,1.4c0,.7,-.7,1.3,-1.4,1.3Z" class="g0_7"/>
<path fill-rule="evenodd" d="M643.8,884.4H370.6c-3,0,-5.6,2.6,-5.6,5.7c0,3,2.6,5.6,5.6,5.6H643.8c3.1,0,5.6,-2.6,5.6,-5.6c0,-3.1,-2.5,-5.7,-5.6,-5.7Z" class="g1_7"/>
<path fill-rule="evenodd" d="M178.3,33.8h4.2c.6,0,1,.5,1,1.1V81.5c0,.6,-.4,1.1,-1,1.1h-4.2c-.5,0,-1,-.5,-1,-1.1V34.9c0,-.6,.5,-1.1,1,-1.1Z" class="g3_7"/>
<path fill-rule="evenodd" d="M177.8,39.6c-2.8,-.3,-5.7,-.3,-8.5,.2c-1.9,.3,-3.8,.8,-5.5,1.5c-.2,.1,-.5,0,-.6,-.2c0,-.2,0,-.4,.2,-.5c5.4,-2.6,12.1,-3.4,18,-2.8c7.6,.8,22,5.7,20.2,15.3c-1.1,6.2,-9.2,9.4,-15,10.4c-.2,.1,-.4,0,-.5,-.2c0,-.2,.1,-.4,.3,-.5c4.2,-1.5,8.8,-4.4,9.7,-8.9c1.6,-9,-10.9,-13.6,-18.3,-14.3Z" class="g3_7"/>
<path fill-rule="evenodd" d="M484.3,36.8c-1.2,5.9,-16.1,11.7,-34.7,13.5c-19,1.7,-35,-1.4,-36.7,-7.1c8.1,2.3,21.5,3,36.6,1.6c14.5,-1.4,27.1,-4.4,34.8,-8Z" class="g4_7"/>
<image x="767" y="54" width="76" height="76" xlink:href="shade/1.png"/>
<path d="M830.6,120.4l-7.1,-2l-3.4,8.7L814,122.9l-6,7.1l-4.4,-5.9l-8.1,4.7l-2.2,-7l-9.1,1.9l.1,-7.4l-9.2,-1.2l2.5,-6.9l-8.3,-4.1l4.6,-5.7l-6.5,-6.6l6.2,-3.9l-4,-8.4l7.1,-1.6l-1.1,-9.3l7.3,.8l2,-9.1l6.7,3.1l4.8,-8l5.3,5.1l7.1,-6l3.4,6.5l8.7,-3.3l1,7.3l9.3,-.4l-1.4,7.2l9,2.7l-3.7,6.4l7.6,5.5l-5.5,4.8l5.4,7.7l-6.9,2.8l2.7,8.9L831,111Z" class="g5_7"/>
<image clip-path="url(#c6_7)" preserveAspectRatio="none" x="777" y="64" width="57" height="57" xlink:href="img/7.jpg"/>
<image x="795" y="114" width="20" height="3" xlink:href="shade/2.png"/>
<image x="795" y="108" width="20" height="6" xlink:href="shade/3.png"/>
</svg>