<?xml version="1.0" encoding="UTF-8" standalone="no"?>
<!DOCTYPE svg PUBLIC "-//W3C//DTD SVG 1.1//EN"
"http://www.w3.org/Graphics/SVG/1.1/DTD/svg11.dtd">
<svg viewBox="0 0 909 1286" version="1.1" xmlns="http://www.w3.org/2000/svg" xmlns:xlink="http://www.w3.org/1999/xlink">
<defs>
<clipPath id="c0"><path d="M198,1251.4v-165H468.3v165Z"/></clipPath>
<clipPath id="c1"><path d="M534.2,313.5v-165H842.7v165Z"/></clipPath>
<clipPath id="c2"><path d="M213.5,511.1v-183H452.8v183Z"/></clipPath>
<clipPath id="c3"><path d="M597.8,695.7V521.4H779.1V695.7Z"/></clipPath>
<clipPath id="c4"><path d="M225.4,877.2v-165H441v165Z"/></clipPath>
<clipPath id="c5"><path d="M621,1067.4V900.9H755.9v166.5Z"/></clipPath>
<clipPath id="c6"><path d="M805,120.7c-15.7,0,-28.4,-12.8,-28.4,-28.5c0,-15.7,12.7,-28.4,28.4,-28.4c15.7,0,28.5,12.7,28.5,28.4c0,15.7,-12.8,28.5,-28.5,28.5Z"/></clipPath>
<style type="text/css"><![CDATA[
.g0{
fill: #A14051;
}
.g1{
fill: #707070;
}
.g2{
fill: #873496;
}
.g3{
fill: #0160AE;
}
.g4{
fill: #F15921;
}
.g5{
fill: none;
stroke: #23408D;
stroke-width: 0.763;
stroke-linecap: round;
stroke-linejoin: round;
stroke-miterlimit: 2;
}
]]></style>
</defs>
<image clip-path="url(#c0)" preserveAspectRatio="none" x="198" y="1086" width="270" height="165" xlink:href="img/1.jpg"/>
<path fill-rule="evenodd" d="M751.9,327.4H256c-.8,0,-1.4,-.6,-1.4,-1.4c0,-.7,.6,-1.4,1.4,-1.4H751.9c.7,0,1.4,.7,1.4,1.4c0,.8,-.7,1.4,-1.4,1.4Z" class="g0"/>
<path fill-rule="evenodd" d="M640.5,320.4H367.3c-3,0,-5.6,2.5,-5.6,5.6c0,3.1,2.6,5.6,5.6,5.6H640.5c3.1,0,5.6,-2.5,5.6,-5.6c0,-3.1,-2.5,-5.6,-5.6,-5.6Z" class="g1"/>
<path fill-rule="evenodd" d="M466.4,151.4H200c-7.9,0,-14.3,6.5,-14.3,14.4c0,7.8,6.4,14.3,14.3,14.3H466.4c7.8,0,14.3,-6.5,14.3,-14.3c0,-7.9,-6.5,-14.4,-14.3,-14.4Z" class="g0"/>
<path fill-rule="evenodd" d="M751.9,515.4H256c-.8,0,-1.4,-.6,-1.4,-1.4c0,-.7,.6,-1.4,1.4,-1.4H751.9c.7,0,1.4,.7,1.4,1.4c0,.8,-.7,1.4,-1.4,1.4Z" class="g0"/>
<path fill-rule="evenodd" d="M640.5,508.4H367.3c-3,0,-5.6,2.5,-5.6,5.6c0,3.1,2.6,5.6,5.6,5.6H640.5c3.1,0,5.6,-2.5,5.6,-5.6c0,-3.1,-2.5,-5.6,-5.6,-5.6Z" class="g1"/>
<path fill-rule="evenodd" d="M751.9,703.4H256c-.8,0,-1.4,-.6,-1.4,-1.4c0,-.7,.6,-1.3,1.4,-1.3H751.9c.7,0,1.4,.6,1.4,1.3c0,.8,-.7,1.4,-1.4,1.4Z" class="g0"/>
<path fill-rule="evenodd" d="M640.5,696.4H367.3c-3,0,-5.6,2.6,-5.6,5.6c0,3.1,2.6,5.7,5.6,5.7H640.5c3.1,0,5.6,-2.6,5.6,-5.7c0,-3,-2.5,-5.6,-5.6,-5.6Z" class="g1"/>
<path fill-rule="evenodd" d="M751.9,891.4H256c-.8,0,-1.4,-.6,-1.4,-1.3c0,-.8,.6,-1.4,1.4,-1.4H751.9c.7,0,1.4,.6,1.4,1.4c0,.7,-.7,1.3,-1.4,1.3Z" class="g0"/>
<path fill-rule="evenodd" d="M640.5,884.4H367.3c-3,0,-5.6,2.6,-5.6,5.7c0,3,2.6,5.6,5.6,5.6H640.5c3.1,0,5.6,-2.6,5.6,-5.6c0,-3.1,-2.5,-5.7,-5.6,-5.7Z" class="g1"/>
<path fill-rule="evenodd" d="M821.6,356.1H555.2c-7.8,0,-14.3,6.5,-14.3,14.4c0,7.8,6.5,14.3,14.3,14.3H821.6c7.9,0,14.3,-6.5,14.3,-14.3c0,-7.9,-6.4,-14.4,-14.3,-14.4Z" class="g0"/>
<path fill-rule="evenodd" d="M466.4,540.9H200c-7.9,0,-14.3,6.4,-14.3,14.3c0,7.8,6.4,14.3,14.3,14.3H466.4c7.8,0,14.3,-6.5,14.3,-14.3c0,-7.9,-6.5,-14.3,-14.3,-14.3Z" class="g0"/>
<path fill-rule="evenodd" d="M821.6,732.1H555.2c-7.8,0,-14.3,6.5,-14.3,14.3c0,7.9,6.5,14.3,14.3,14.3H821.6c7.9,0,14.3,-6.4,14.3,-14.3c0,-7.8,-6.4,-14.3,-14.3,-14.3Z" class="g0"/>
<image clip-path="url(#c1)" preserveAspectRatio="none" x="534" y="149" width="309" height="165" xlink:href="img/2.png"/>
<image clip-path="url(#c2)" preserveAspectRatio="none" x="214" y="328" width="239" height="183" xlink:href="img/3.png"/>
<image clip-path="url(#c3)" preserveAspectRatio="none" x="598" y="521" width="181" height="175" xlink:href="img/4.png"/>
<image clip-path="url(#c4)" preserveAspectRatio="none" x="225" y="712" width="216" height="165" xlink:href="img/5.png"/>
<path fill-rule="evenodd" d="M466.4,920.2H200c-7.9,0,-14.3,6.4,-14.3,14.3c0,7.9,6.4,14.3,14.3,14.3H466.4c7.8,0,14.3,-6.4,14.3,-14.3c0,-7.9,-6.5,-14.3,-14.3,-14.3Z" class="g2"/>
<image clip-path="url(#c5)" preserveAspectRatio="none" x="621" y="901" width="135" height="166" xlink:href="img/6.jpg"/>
<path fill-rule="evenodd" d="M751.9,1081H256c-.8,0,-1.4,-.7,-1.4,-1.4c0,-.8,.6,-1.4,1.4,-1.4H751.9c.7,0,1.4,.6,1.4,1.4c0,.7,-.7,1.4,-1.4,1.4Z" class="g0"/>
<path fill-rule="evenodd" d="M640.5,1074H367.3c-3,0,-5.6,2.5,-5.6,5.6c0,3.1,2.6,5.6,5.6,5.6H640.5c3.1,0,5.6,-2.5,5.6,-5.6c0,-3.1,-2.5,-5.6,-5.6,-5.6Z" class="g1"/>
<path fill-rule="evenodd" d="M821.6,1109.7H555.2c-7.8,0,-14.3,6.4,-14.3,14.3c0,7.8,6.5,14.3,14.3,14.3H821.6c7.9,0,14.3,-6.5,14.3,-14.3c0,-7.9,-6.4,-14.3,-14.3,-14.3Z" class="g0"/>
<path fill-rule="evenodd" d="M178.3,33.8h4.2c.6,0,1,.5,1,1.1V81.5c0,.6,-.4,1.1,-1,1.1h-4.2c-.5,0,-1,-.5,-1,-1.1V34.9c0,-.6,.5,-1.1,1,-1.1Z" class="g3"/>
<path fill-rule="evenodd" d="M177.8,39.6c-2.8,-.3,-5.7,-.3,-8.5,.2c-1.9,.3,-3.8,.8,-5.5,1.5c-.2,.1,-.5,0,-.6,-.2c0,-.2,0,-.4,.2,-.5c5.4,-2.6,12.1,-3.4,18,-2.8c7.6,.8,22,5.7,20.2,15.3c-1.1,6.2,-9.2,9.4,-15,10.4c-.2,.1,-.4,0,-.5,-.2c0,-.2,.1,-.4,.3,-.5c4.2,-1.5,8.8,-4.4,9.7,-8.9c1.6,-9,-10.9,-13.6,-18.3,-14.3Z" class="g3"/>
<path fill-rule="evenodd" d="M484.3,36.8c-1.2,5.9,-16.1,11.7,-34.7,13.5c-19,1.7,-35,-1.4,-36.7,-7.1c8.1,2.3,21.5,3,36.6,1.6c14.5,-1.4,27.1,-4.4,34.8,-8Z" class="g4"/>
<image x="767" y="54" width="76" height="76" xlink:href="shade/1.png"/>
<path d="M830.6,120.4l-7.1,-2l-3.4,8.7L814,122.9l-6,7.1l-4.4,-5.9l-8.1,4.7l-2.2,-7l-9.1,1.9l.1,-7.4l-9.2,-1.2l2.5,-6.9l-8.3,-4.1l4.6,-5.7l-6.5,-6.6l6.2,-3.9l-4,-8.4l7.1,-1.6l-1.1,-9.3l7.3,.8l2,-9.1l6.7,3.1l4.8,-8l5.3,5.1l7.1,-6l3.4,6.5l8.7,-3.3l1,7.3l9.3,-.4l-1.4,7.2l9,2.7l-3.7,6.4l7.6,5.5l-5.5,4.8l5.4,7.7l-6.9,2.8l2.7,8.9L831,111Z" class="g5"/>
<image clip-path="url(#c6)" preserveAspectRatio="none" x="777" y="64" width="57" height="57" xlink:href="img/7.jpg"/>
<image x="795" y="114" width="20" height="3" xlink:href="shade/2.png"/>
<image x="795" y="108" width="20" height="6" xlink:href="shade/3.png"/>
</svg>