<?xml version="1.0" encoding="UTF-8" standalone="no"?>
<!DOCTYPE svg PUBLIC "-//W3C//DTD SVG 1.1//EN"
"http://www.w3.org/Graphics/SVG/1.1/DTD/svg11.dtd">
<svg viewBox="0 0 909 1286" version="1.1" xmlns="http://www.w3.org/2000/svg" xmlns:xlink="http://www.w3.org/1999/xlink">
<defs>
<clipPath id="c0_9"><path d="M286.4,882.1V707.2H380V882.1Z"/></clipPath>
<clipPath id="c1_9"><path d="M667.7,307.6V149.5h46.1V307.6Z"/></clipPath>
<clipPath id="c2_9"><path d="M718.9,314.3V147.7h52.9V314.3Z"/></clipPath>
<clipPath id="c3_9"><path d="M719.9,314.3V190.4h34.7V314.3Z"/></clipPath>
<clipPath id="c4_9"><path d="M752.8,313.8V190.4h19V313.8Z"/></clipPath>
<clipPath id="c5_9"><path d="M718.9,192.8V147.7h52.9v45.1Z"/></clipPath>
<clipPath id="c6_9"><path d="M605.1,314V147.7h57.6V314Z"/></clipPath>
<clipPath id="c7_9"><path d="M623.9,314.3v-124h38.8v124Z"/></clipPath>
<clipPath id="c8_9"><path d="M605.1,313.5V190.3h20.7V313.5Z"/></clipPath>
<clipPath id="c9_9"><path d="M605.1,192.8V147.7h57.6v45.1Z"/></clipPath>
<clipPath id="ca_9"><path d="M612.9,695.3V521.8H764V695.3Z"/></clipPath>
<clipPath id="cb_9"><path d="M622.9,1061.4V894.9H754v166.5Z"/></clipPath>
<clipPath id="cc_9"><path d="M155.4,497.5V352.4H504.3V497.5Z"/></clipPath>
<clipPath id="cd_9"><path d="M275.8,1241.3V1088.1H381.4v153.2Z"/></clipPath>
<clipPath id="ce_9"><path d="M805,120.7c-15.7,0,-28.4,-12.8,-28.4,-28.5c0,-15.7,12.7,-28.4,28.4,-28.4c15.7,0,28.5,12.7,28.5,28.4c0,15.7,-12.8,28.5,-28.5,28.5Z"/></clipPath>
<style type="text/css"><![CDATA[
.g0_9{
fill: #0165B9;
}
.g1_9{
fill: #707070;
}
.g2_9{
fill: #0160AE;
}
.g3_9{
fill: #F15921;
}
.g4_9{
fill: none;
stroke: #23408D;
stroke-width: 0.763;
stroke-linecap: round;
stroke-linejoin: round;
stroke-miterlimit: 2;
}
]]></style>
</defs>
<image clip-path="url(#c0_9)" preserveAspectRatio="none" x="286" y="707" width="94" height="175" xlink:href="img/1.jpg"/>
<path fill-rule="evenodd" d="M751.9,327.4H256c-.8,0,-1.4,-.6,-1.4,-1.4c0,-.7,.6,-1.4,1.4,-1.4H751.9c.7,0,1.4,.7,1.4,1.4c0,.8,-.7,1.4,-1.4,1.4Z" class="g0_9"/>
<path fill-rule="evenodd" d="M640.5,320.4H367.3c-3,0,-5.6,2.5,-5.6,5.6c0,3.1,2.6,5.6,5.6,5.6H640.5c3.1,0,5.6,-2.5,5.6,-5.6c0,-3.1,-2.5,-5.6,-5.6,-5.6Z" class="g1_9"/>
<path fill-rule="evenodd" d="M466.4,151.4H200c-7.9,0,-14.3,6.5,-14.3,14.4c0,7.8,6.4,14.3,14.3,14.3H466.4c7.8,0,14.3,-6.5,14.3,-14.3c0,-7.9,-6.5,-14.4,-14.3,-14.4Z" class="g0_9"/>
<path fill-rule="evenodd" d="M751.9,515.4H256c-.8,0,-1.4,-.6,-1.4,-1.4c0,-.7,.6,-1.4,1.4,-1.4H751.9c.7,0,1.4,.7,1.4,1.4c0,.8,-.7,1.4,-1.4,1.4Z" class="g0_9"/>
<path fill-rule="evenodd" d="M640.5,508.4H367.3c-3,0,-5.6,2.5,-5.6,5.6c0,3.1,2.6,5.6,5.6,5.6H640.5c3.1,0,5.6,-2.5,5.6,-5.6c0,-3.1,-2.5,-5.6,-5.6,-5.6Z" class="g1_9"/>
<path fill-rule="evenodd" d="M751.9,703.4H256c-.8,0,-1.4,-.6,-1.4,-1.4c0,-.7,.6,-1.3,1.4,-1.3H751.9c.7,0,1.4,.6,1.4,1.3c0,.8,-.7,1.4,-1.4,1.4Z" class="g0_9"/>
<path fill-rule="evenodd" d="M640.5,696.4H367.3c-3,0,-5.6,2.6,-5.6,5.6c0,3.1,2.6,5.7,5.6,5.7H640.5c3.1,0,5.6,-2.6,5.6,-5.7c0,-3,-2.5,-5.6,-5.6,-5.6Z" class="g1_9"/>
<path fill-rule="evenodd" d="M751.9,891.4H256c-.8,0,-1.4,-.6,-1.4,-1.3c0,-.8,.6,-1.4,1.4,-1.4H751.9c.7,0,1.4,.6,1.4,1.4c0,.7,-.7,1.3,-1.4,1.3Z" class="g0_9"/>
<path fill-rule="evenodd" d="M640.5,884.4H367.3c-3,0,-5.6,2.6,-5.6,5.7c0,3,2.6,5.6,5.6,5.6H640.5c3.1,0,5.6,-2.6,5.6,-5.6c0,-3.1,-2.5,-5.7,-5.6,-5.7Z" class="g1_9"/>
<path fill-rule="evenodd" d="M466.4,540.9H200c-7.9,0,-14.3,6.4,-14.3,14.3c0,7.8,6.4,14.3,14.3,14.3H466.4c7.8,0,14.3,-6.5,14.3,-14.3c0,-7.9,-6.5,-14.3,-14.3,-14.3Z" class="g0_9"/>
<path fill-rule="evenodd" d="M821.6,732.1H555.2c-7.8,0,-14.3,6.5,-14.3,14.3c0,7.9,6.5,14.3,14.3,14.3H821.6c7.9,0,14.3,-6.4,14.3,-14.3c0,-7.8,-6.4,-14.3,-14.3,-14.3Z" class="g0_9"/>
<path fill-rule="evenodd" d="M751.9,1079.4H256c-.8,0,-1.4,-.6,-1.4,-1.3c0,-.8,.6,-1.4,1.4,-1.4H751.9c.7,0,1.4,.6,1.4,1.4c0,.7,-.7,1.3,-1.4,1.3Z" class="g0_9"/>
<path fill-rule="evenodd" d="M640.5,1072.5H367.3c-3,0,-5.6,2.5,-5.6,5.6c0,3.1,2.6,5.6,5.6,5.6H640.5c3.1,0,5.6,-2.5,5.6,-5.6c0,-3.1,-2.5,-5.6,-5.6,-5.6Z" class="g1_9"/>
<image clip-path="url(#c1_9)" preserveAspectRatio="none" x="668" y="150" width="46" height="158" xlink:href="img/2.png"/>
<image clip-path="url(#c2_9)" preserveAspectRatio="none" x="719" y="148" width="53" height="166" xlink:href="img/3.png"/>
<image clip-path="url(#c3_9)" preserveAspectRatio="none" x="720" y="190" width="35" height="124" xlink:href="img/4.png"/>
<image clip-path="url(#c4_9)" preserveAspectRatio="none" x="753" y="190" width="19" height="124" xlink:href="img/5.png"/>
<image clip-path="url(#c5_9)" preserveAspectRatio="none" x="719" y="148" width="53" height="45" xlink:href="img/6.jpg"/>
<image clip-path="url(#c6_9)" preserveAspectRatio="none" x="605" y="148" width="58" height="166" xlink:href="img/7.png"/>
<image clip-path="url(#c7_9)" preserveAspectRatio="none" x="624" y="190" width="39" height="124" xlink:href="img/8.png"/>
<image clip-path="url(#c8_9)" preserveAspectRatio="none" x="605" y="190" width="21" height="124" xlink:href="img/9.png"/>
<image clip-path="url(#c9_9)" preserveAspectRatio="none" x="605" y="148" width="58" height="45" xlink:href="img/10.jpg"/>
<image clip-path="url(#ca_9)" preserveAspectRatio="none" x="613" y="522" width="151" height="173" xlink:href="img/11.jpg"/>
<image clip-path="url(#cb_9)" preserveAspectRatio="none" x="623" y="895" width="131" height="167" xlink:href="img/12.png"/>
<path fill-rule="evenodd" d="M200,907.6H466.4c7.8,0,14.3,6.4,14.3,14.3c0,7.9,-6.5,14.3,-14.3,14.3H200c-7.9,0,-14.3,-6.4,-14.3,-14.3c0,-7.9,6.4,-14.3,14.3,-14.3Z" class="g0_9"/>
<image clip-path="url(#cc_9)" preserveAspectRatio="none" x="155" y="352" width="349" height="146" xlink:href="img/13.png"/>
<path fill-rule="evenodd" d="M551.9,353.2H818.3c7.9,0,14.3,6.4,14.3,14.3c0,7.9,-6.4,14.3,-14.3,14.3H551.9c-7.8,0,-14.3,-6.4,-14.3,-14.3c0,-7.9,6.5,-14.3,14.3,-14.3Z" class="g0_9"/>
<image clip-path="url(#cd_9)" preserveAspectRatio="none" x="276" y="1088" width="106" height="153" xlink:href="img/14.png"/>
<path fill-rule="evenodd" d="M514.4,1095.5H780.8c7.9,0,14.3,6.4,14.3,14.3c0,7.9,-6.4,14.3,-14.3,14.3H514.4c-7.8,0,-14.3,-6.4,-14.3,-14.3c0,-7.9,6.5,-14.3,14.3,-14.3Z" class="g0_9"/>
<path fill-rule="evenodd" d="M178.3,33.8h4.2c.6,0,1,.5,1,1.1V81.5c0,.6,-.4,1.1,-1,1.1h-4.2c-.5,0,-1,-.5,-1,-1.1V34.9c0,-.6,.5,-1.1,1,-1.1Z" class="g2_9"/>
<path fill-rule="evenodd" d="M177.8,39.6c-2.8,-.3,-5.7,-.3,-8.5,.2c-1.9,.3,-3.8,.8,-5.5,1.5c-.2,.1,-.5,0,-.6,-.2c0,-.2,0,-.4,.2,-.5c5.4,-2.6,12.1,-3.4,18,-2.8c7.6,.8,22,5.7,20.2,15.3c-1.1,6.2,-9.2,9.4,-15,10.4c-.2,.1,-.4,0,-.5,-.2c0,-.2,.1,-.4,.3,-.5c4.2,-1.5,8.8,-4.4,9.7,-8.9c1.6,-9,-10.9,-13.6,-18.3,-14.3Z" class="g2_9"/>
<path fill-rule="evenodd" d="M484.3,36.8c-1.2,5.9,-16.1,11.7,-34.7,13.5c-19,1.7,-35,-1.4,-36.7,-7.1c8.1,2.3,21.5,3,36.6,1.6c14.5,-1.4,27.1,-4.4,34.8,-8Z" class="g3_9"/>
<image x="767" y="54" width="76" height="76" xlink:href="shade/1.png"/>
<path d="M830.6,120.4l-7.1,-2l-3.4,8.7L814,122.9l-6,7.1l-4.4,-5.9l-8.1,4.7l-2.2,-7l-9.1,1.9l.1,-7.4l-9.2,-1.2l2.5,-6.9l-8.3,-4.1l4.6,-5.7l-6.5,-6.6l6.2,-3.9l-4,-8.4l7.1,-1.6l-1.1,-9.3l7.3,.8l2,-9.1l6.7,3.1l4.8,-8l5.3,5.1l7.1,-6l3.4,6.5l8.7,-3.3l1,7.3l9.3,-.4l-1.4,7.2l9,2.7l-3.7,6.4l7.6,5.5l-5.5,4.8l5.4,7.7l-6.9,2.8l2.7,8.9L831,111Z" class="g4_9"/>
<image clip-path="url(#ce_9)" preserveAspectRatio="none" x="777" y="64" width="57" height="57" xlink:href="img/15.jpg"/>
<image x="795" y="114" width="20" height="3" xlink:href="shade/2.png"/>
<image x="795" y="108" width="20" height="6" xlink:href="shade/3.png"/>
</svg>