<?xml version="1.0" encoding="UTF-8" standalone="no"?>
<!DOCTYPE svg PUBLIC "-//W3C//DTD SVG 1.1//EN"
"http://www.w3.org/Graphics/SVG/1.1/DTD/svg11.dtd">
<svg viewBox="0 0 909 1286" version="1.1" xmlns="http://www.w3.org/2000/svg" xmlns:xlink="http://www.w3.org/1999/xlink">
<defs>
<clipPath id="c0_3"><path d="M171.2,691.8V525.3h229V691.8Z"/></clipPath>
<clipPath id="c1_3"><path d="M214.5,1071.9V905.4H420.9v166.5Z"/></clipPath>
<clipPath id="c2_3"><path d="M595.4,1242V1075.5H803.9V1242Z"/></clipPath>
<clipPath id="c3_3"><path d="M580.2,501.4V334.8H802.1V501.4Z"/></clipPath>
<clipPath id="c4_3"><path d="M569.9,889.9V704.4H812.4V889.9Z"/></clipPath>
<clipPath id="c5_3"><path d="M229.3,320.9V150.2H442.5V320.9Z"/></clipPath>
<clipPath id="c6_3"><path d="M805,120.7c-15.7,0,-28.4,-12.8,-28.4,-28.5c0,-15.7,12.7,-28.4,28.4,-28.4c15.7,0,28.5,12.7,28.5,28.4c0,15.7,-12.8,28.5,-28.5,28.5Z"/></clipPath>
<style type="text/css"><![CDATA[
.g0_3{
fill: #EC008C;
}
.g1_3{
fill: #707070;
}
.g2_3{
fill: #FFFFFF;
}
.g3_3{
fill: #0160AE;
}
.g4_3{
fill: #F15921;
}
.g5_3{
fill: none;
stroke: #23408D;
stroke-width: 0.763;
stroke-linecap: round;
stroke-linejoin: round;
stroke-miterlimit: 2;
}
]]></style>
</defs>
<path fill-rule="evenodd" d="M272.5,327.4H768.4c.7,0,1.4,-.6,1.4,-1.4c0,-.7,-.7,-1.4,-1.4,-1.4H272.5c-.8,0,-1.4,.7,-1.4,1.4c0,.8,.6,1.4,1.4,1.4Z" class="g0_3"/>
<path fill-rule="evenodd" d="M383.8,320.4H657c3.1,0,5.6,2.5,5.6,5.6c0,3.1,-2.5,5.6,-5.6,5.6H383.8c-3,0,-5.6,-2.5,-5.6,-5.6c0,-3.1,2.6,-5.6,5.6,-5.6Z" class="g1_3"/>
<path fill-rule="evenodd" d="M558,151.4H824.3c7.9,0,14.3,6.5,14.3,14.4c0,7.8,-6.4,14.3,-14.3,14.3H558c-7.9,0,-14.4,-6.5,-14.4,-14.3c0,-7.9,6.5,-14.4,14.4,-14.4Z" class="g0_3"/>
<path fill-rule="evenodd" d="M272.5,515.4H768.4c.7,0,1.4,-.6,1.4,-1.4c0,-.7,-.7,-1.4,-1.4,-1.4H272.5c-.8,0,-1.4,.7,-1.4,1.4c0,.8,.6,1.4,1.4,1.4Z" class="g0_3"/>
<path fill-rule="evenodd" d="M383.8,508.4H657c3.1,0,5.6,2.5,5.6,5.6c0,3.1,-2.5,5.6,-5.6,5.6H383.8c-3,0,-5.6,-2.5,-5.6,-5.6c0,-3.1,2.6,-5.6,5.6,-5.6Z" class="g1_3"/>
<path fill-rule="evenodd" d="M272.5,703.4H768.4c.7,0,1.4,-.6,1.4,-1.4c0,-.7,-.7,-1.3,-1.4,-1.3H272.5c-.8,0,-1.4,.6,-1.4,1.3c0,.8,.6,1.4,1.4,1.4Z" class="g0_3"/>
<path fill-rule="evenodd" d="M383.8,696.4H657c3.1,0,5.6,2.6,5.6,5.6c0,3.1,-2.5,5.7,-5.6,5.7H383.8c-3,0,-5.6,-2.6,-5.6,-5.7c0,-3,2.6,-5.6,5.6,-5.6Z" class="g1_3"/>
<path fill-rule="evenodd" d="M272.5,891.4H768.4c.7,0,1.4,-.6,1.4,-1.3c0,-.8,-.7,-1.4,-1.4,-1.4H272.5c-.8,0,-1.4,.6,-1.4,1.4c0,.7,.6,1.3,1.4,1.3Z" class="g0_3"/>
<path fill-rule="evenodd" d="M383.8,884.4H657c3.1,0,5.6,2.6,5.6,5.7c0,3,-2.5,5.6,-5.6,5.6H383.8c-3,0,-5.6,-2.6,-5.6,-5.6c0,-3.1,2.6,-5.7,5.6,-5.7Z" class="g1_3"/>
<path fill-rule="evenodd" d="M202.7,356.1H469.1c7.9,0,14.3,6.5,14.3,14.4c0,7.8,-6.5,14.3,-14.3,14.3H202.7c-7.9,0,-14.3,-6.5,-14.3,-14.3c0,-7.9,6.4,-14.4,14.3,-14.4Z" class="g0_3"/>
<path fill-rule="evenodd" d="M558,540.9H824.3c7.9,0,14.3,6.4,14.3,14.3c0,7.8,-6.4,14.3,-14.3,14.3H558c-7.9,0,-14.4,-6.5,-14.4,-14.3c0,-7.9,6.5,-14.3,14.4,-14.3Z" class="g0_3"/>
<path fill-rule="evenodd" d="M202.7,732.1H469.1c7.9,0,14.3,6.5,14.3,14.3c0,7.9,-6.5,14.3,-14.3,14.3H202.7c-7.9,0,-14.3,-6.4,-14.3,-14.3c0,-7.8,6.4,-14.3,14.3,-14.3Z" class="g0_3"/>
<path fill-rule="evenodd" d="M558,920.2H824.3c7.9,0,14.3,6.4,14.3,14.3c0,7.9,-6.4,14.3,-14.3,14.3H558c-7.9,0,-14.4,-6.4,-14.4,-14.3c0,-7.9,6.5,-14.3,14.4,-14.3Z" class="g0_3"/>
<path fill-rule="evenodd" d="M272.5,1079.4H768.4c.7,0,1.4,-.6,1.4,-1.3c0,-.8,-.7,-1.4,-1.4,-1.4H272.5c-.8,0,-1.4,.6,-1.4,1.4c0,.7,.6,1.3,1.4,1.3Z" class="g0_3"/>
<path fill-rule="evenodd" d="M383.8,1072.5H657c3.1,0,5.6,2.5,5.6,5.6c0,3.1,-2.5,5.6,-5.6,5.6H383.8c-3,0,-5.6,-2.5,-5.6,-5.6c0,-3.1,2.6,-5.6,5.6,-5.6Z" class="g1_3"/>
<path d="M381.4,741v-4.8h-1.8v-.7h4.3v.7h-1.8V741Zm3.2,0v-5.5h1.1l1.3,3.9c.1,.4,.2,.6,.2,.8c.1,-.2,.2,-.5,.3,-.9l1.3,-3.8h1V741h-.7v-4.6l-1.6,4.6h-.6l-1.6,-4.7V741Z" class="g2_3"/>
<image clip-path="url(#c0_3)" preserveAspectRatio="none" x="171" y="525" width="229" height="167" xlink:href="img/1.png"/>
<image clip-path="url(#c1_3)" preserveAspectRatio="none" x="214" y="905" width="207" height="167" xlink:href="img/2.png"/>
<image clip-path="url(#c2_3)" preserveAspectRatio="none" x="595" y="1075" width="209" height="167" xlink:href="img/3.png"/>
<path fill-rule="evenodd" d="M202.7,1108.2H469.1c7.9,0,14.3,6.4,14.3,14.3c0,7.8,-6.5,14.3,-14.3,14.3H202.7c-7.9,0,-14.3,-6.5,-14.3,-14.3c0,-7.9,6.4,-14.3,14.3,-14.3Z" class="g0_3"/>
<image clip-path="url(#c3_3)" preserveAspectRatio="none" x="580" y="335" width="222" height="167" xlink:href="img/4.png"/>
<image clip-path="url(#c4_3)" preserveAspectRatio="none" x="570" y="704" width="242" height="186" xlink:href="img/5.png"/>
<path fill-rule="evenodd" d="M178.3,33.8h4.2c.6,0,1,.5,1,1.1V81.5c0,.6,-.4,1.1,-1,1.1h-4.2c-.5,0,-1,-.5,-1,-1.1V34.9c0,-.6,.5,-1.1,1,-1.1Z" class="g3_3"/>
<path fill-rule="evenodd" d="M177.8,39.6c-2.8,-.3,-5.7,-.3,-8.5,.2c-1.9,.3,-3.8,.8,-5.5,1.5c-.2,.1,-.5,0,-.6,-.2c0,-.2,0,-.4,.2,-.5c5.4,-2.6,12.1,-3.4,18,-2.8c7.6,.8,22,5.7,20.2,15.3c-1.1,6.2,-9.2,9.4,-15,10.4c-.2,.1,-.4,0,-.5,-.2c0,-.2,.1,-.4,.3,-.5c4.2,-1.5,8.8,-4.4,9.7,-8.9c1.6,-9,-10.9,-13.6,-18.3,-14.3Z" class="g3_3"/>
<path fill-rule="evenodd" d="M484.3,36.8c-1.2,5.9,-16.1,11.7,-34.7,13.5c-19,1.7,-35,-1.4,-36.7,-7.1c8.1,2.3,21.5,3,36.6,1.6c14.5,-1.4,27.1,-4.4,34.8,-8Z" class="g4_3"/>
<image clip-path="url(#c5_3)" preserveAspectRatio="none" x="229" y="150" width="214" height="171" xlink:href="img/6.png"/>
<image x="767" y="54" width="76" height="76" xlink:href="shade/1.png"/>
<path d="M830.6,120.4l-7.1,-2l-3.4,8.7L814,122.9l-6,7.1l-4.4,-5.9l-8.1,4.7l-2.2,-7l-9.1,1.9l.1,-7.4l-9.2,-1.2l2.5,-6.9l-8.3,-4.1l4.6,-5.7l-6.5,-6.6l6.2,-3.9l-4,-8.4l7.1,-1.6l-1.1,-9.3l7.3,.8l2,-9.1l6.7,3.1l4.8,-8l5.3,5.1l7.1,-6l3.4,6.5l8.7,-3.3l1,7.3l9.3,-.4l-1.4,7.2l9,2.7l-3.7,6.4l7.6,5.5l-5.5,4.8l5.4,7.7l-6.9,2.8l2.7,8.9L831,111Z" class="g5_3"/>
<image clip-path="url(#c6_3)" preserveAspectRatio="none" x="777" y="64" width="57" height="57" xlink:href="img/7.jpg"/>
<image x="795" y="114" width="20" height="3" xlink:href="shade/2.png"/>
<image x="795" y="108" width="20" height="6" xlink:href="shade/3.png"/>
</svg>