<?xml version="1.0" encoding="UTF-8" standalone="no"?>
<!DOCTYPE svg PUBLIC "-//W3C//DTD SVG 1.1//EN"
"http://www.w3.org/Graphics/SVG/1.1/DTD/svg11.dtd">
<svg viewBox="0 0 909 1286" version="1.1" xmlns="http://www.w3.org/2000/svg" xmlns:xlink="http://www.w3.org/1999/xlink">
<defs>
<clipPath id="c0_8"><path d="M241.5,1067.4V900.9h88.4v166.5Z"/></clipPath>
<clipPath id="c1_8"><path d="M676.2,1250V1083.5h89.3V1250Z"/></clipPath>
<clipPath id="c2_8"><path d="M223.8,314.3V147.7H347.6V314.3Z"/></clipPath>
<clipPath id="c3_8"><path d="M681.8,877.9V711.4h78V877.9Z"/></clipPath>
<clipPath id="c4_8"><path d="M658,502.9V336.3H783.7V502.9Z"/></clipPath>
<clipPath id="c5_8"><path d="M161.7,691.8V525.3h248V691.8Z"/></clipPath>
<clipPath id="c6_8"><path d="M216.6,120.7c-15.7,0,-28.4,-12.8,-28.4,-28.5c0,-15.7,12.7,-28.4,28.4,-28.4c15.7,0,28.4,12.7,28.4,28.4c0,15.7,-12.7,28.5,-28.4,28.5Z"/></clipPath>
<style type="text/css"><![CDATA[
.g0_8{
fill: #873496;
}
.g1_8{
fill: #707070;
}
.g2_8{
fill: #0160AE;
}
.g3_8{
fill: #F15921;
}
.g4_8{
fill: none;
stroke: #23408D;
stroke-width: 0.763;
stroke-linecap: round;
stroke-linejoin: round;
stroke-miterlimit: 2;
}
]]></style>
</defs>
<path fill-rule="evenodd" d="M272.5,327.4H768.4c.7,0,1.4,-.6,1.4,-1.4c0,-.7,-.7,-1.4,-1.4,-1.4H272.5c-.8,0,-1.4,.7,-1.4,1.4c0,.8,.6,1.4,1.4,1.4Z" class="g0_8"/>
<path fill-rule="evenodd" d="M383.8,320.4H657c3.1,0,5.6,2.5,5.6,5.6c0,3.1,-2.5,5.6,-5.6,5.6H383.8c-3,0,-5.6,-2.5,-5.6,-5.6c0,-3.1,2.6,-5.6,5.6,-5.6Z" class="g1_8"/>
<path fill-rule="evenodd" d="M558,151.4H824.3c7.9,0,14.3,6.5,14.3,14.4c0,7.8,-6.4,14.3,-14.3,14.3H558c-7.9,0,-14.4,-6.5,-14.4,-14.3c0,-7.9,6.5,-14.4,14.4,-14.4Z" class="g0_8"/>
<path fill-rule="evenodd" d="M272.5,515.4H768.4c.7,0,1.4,-.6,1.4,-1.4c0,-.7,-.7,-1.4,-1.4,-1.4H272.5c-.8,0,-1.4,.7,-1.4,1.4c0,.8,.6,1.4,1.4,1.4Z" class="g0_8"/>
<path fill-rule="evenodd" d="M383.8,508.4H657c3.1,0,5.6,2.5,5.6,5.6c0,3.1,-2.5,5.6,-5.6,5.6H383.8c-3,0,-5.6,-2.5,-5.6,-5.6c0,-3.1,2.6,-5.6,5.6,-5.6Z" class="g1_8"/>
<path fill-rule="evenodd" d="M272.5,703.4H768.4c.7,0,1.4,-.6,1.4,-1.4c0,-.7,-.7,-1.3,-1.4,-1.3H272.5c-.8,0,-1.4,.6,-1.4,1.3c0,.8,.6,1.4,1.4,1.4Z" class="g0_8"/>
<path fill-rule="evenodd" d="M383.8,696.4H657c3.1,0,5.6,2.6,5.6,5.6c0,3.1,-2.5,5.7,-5.6,5.7H383.8c-3,0,-5.6,-2.6,-5.6,-5.7c0,-3,2.6,-5.6,5.6,-5.6Z" class="g1_8"/>
<path fill-rule="evenodd" d="M272.5,891.4H768.4c.7,0,1.4,-.6,1.4,-1.3c0,-.8,-.7,-1.4,-1.4,-1.4H272.5c-.8,0,-1.4,.6,-1.4,1.4c0,.7,.6,1.3,1.4,1.3Z" class="g0_8"/>
<path fill-rule="evenodd" d="M383.8,884.4H657c3.1,0,5.6,2.6,5.6,5.7c0,3,-2.5,5.6,-5.6,5.6H383.8c-3,0,-5.6,-2.6,-5.6,-5.6c0,-3.1,2.6,-5.7,5.6,-5.7Z" class="g1_8"/>
<path fill-rule="evenodd" d="M202.7,356.1H469.1c7.9,0,14.3,6.5,14.3,14.4c0,7.8,-6.5,14.3,-14.3,14.3H202.7c-7.9,0,-14.3,-6.5,-14.3,-14.3c0,-7.9,6.4,-14.4,14.3,-14.4Z" class="g0_8"/>
<path fill-rule="evenodd" d="M558,540.9H824.3c7.9,0,14.3,6.4,14.3,14.3c0,7.8,-6.4,14.3,-14.3,14.3H558c-7.9,0,-14.4,-6.5,-14.4,-14.3c0,-7.9,6.5,-14.3,14.4,-14.3Z" class="g0_8"/>
<path fill-rule="evenodd" d="M202.7,732.1H469.1c7.9,0,14.3,6.5,14.3,14.3c0,7.9,-6.5,14.3,-14.3,14.3H202.7c-7.9,0,-14.3,-6.4,-14.3,-14.3c0,-7.8,6.4,-14.3,14.3,-14.3Z" class="g0_8"/>
<path fill-rule="evenodd" d="M558,920.2H824.3c7.9,0,14.3,6.4,14.3,14.3c0,7.9,-6.4,14.3,-14.3,14.3H558c-7.9,0,-14.4,-6.4,-14.4,-14.3c0,-7.9,6.5,-14.3,14.4,-14.3Z" class="g0_8"/>
<path fill-rule="evenodd" d="M272.5,1079.4H768.4c.7,0,1.4,-.6,1.4,-1.3c0,-.8,-.7,-1.4,-1.4,-1.4H272.5c-.8,0,-1.4,.6,-1.4,1.4c0,.7,.6,1.3,1.4,1.3Z" class="g0_8"/>
<path fill-rule="evenodd" d="M383.8,1072.5H657c3.1,0,5.6,2.5,5.6,5.6c0,3.1,-2.5,5.6,-5.6,5.6H383.8c-3,0,-5.6,-2.5,-5.6,-5.6c0,-3.1,2.6,-5.6,5.6,-5.6Z" class="g1_8"/>
<image clip-path="url(#c0_8)" preserveAspectRatio="none" x="242" y="900" width="88" height="167" xlink:href="img/1.png"/>
<image clip-path="url(#c1_8)" preserveAspectRatio="none" x="676" y="1083" width="89" height="167" xlink:href="img/2.png"/>
<image clip-path="url(#c2_8)" preserveAspectRatio="none" x="224" y="148" width="124" height="166" xlink:href="img/3.png"/>
<image clip-path="url(#c3_8)" preserveAspectRatio="none" x="682" y="711" width="78" height="167" xlink:href="img/4.png"/>
<image clip-path="url(#c4_8)" preserveAspectRatio="none" x="658" y="336" width="126" height="167" xlink:href="img/5.png"/>
<image clip-path="url(#c5_8)" preserveAspectRatio="none" x="162" y="525" width="248" height="167" xlink:href="img/6.png"/>
<path fill-rule="evenodd" d="M202.7,1108.2H469.1c7.9,0,14.3,6.4,14.3,14.3c0,7.8,-6.5,14.3,-14.3,14.3H202.7c-7.9,0,-14.3,-6.5,-14.3,-14.3c0,-7.9,6.4,-14.3,14.3,-14.3Z" class="g0_8"/>
<path fill-rule="evenodd" d="M525.3,23.5h4.1c.6,0,1.1,.5,1.1,1.1V71.2c0,.6,-.5,1.1,-1.1,1.1h-4.1c-.6,0,-1,-.5,-1,-1.1V24.6c0,-.6,.4,-1.1,1,-1.1Z" class="g2_8"/>
<path fill-rule="evenodd" d="M524.8,29.3c-2.8,-.3,-5.7,-.2,-8.5,.2c-1.9,.3,-3.8,.8,-5.5,1.5c-.2,.1,-.5,0,-.6,-.2c-.1,-.1,0,-.4,.2,-.5c5.3,-2.6,12,-3.4,18,-2.8c7.6,.8,22,5.7,20.2,15.3c-1.1,6.2,-9.2,9.4,-15,10.5c-.2,0,-.4,-.1,-.5,-.3c0,-.2,.1,-.4,.3,-.5c4.2,-1.5,8.8,-4.4,9.7,-8.9C544.7,34.6,532.2,30,524.8,29.3Z" class="g2_8"/>
<path fill-rule="evenodd" d="M831.3,26.6C830,32.4,815.2,38.2,796.6,40c-19,1.8,-35,-1.4,-36.7,-7.1c8,2.3,21.5,3,36.6,1.6c14.5,-1.4,27.1,-4.4,34.8,-7.9Z" class="g3_8"/>
<image x="178" y="54" width="77" height="76" xlink:href="shade/1.png"/>
<path d="M242.2,120.4l-7.1,-2l-3.4,8.7l-6.1,-4.2l-6,7.1l-4.4,-5.9l-8.1,4.7l-2.2,-7l-9.1,1.9l.1,-7.4l-9.2,-1.2l2.5,-6.9l-8.3,-4.1l4.6,-5.7L179,91.8l6.2,-3.9l-4,-8.4l7.1,-1.6l-1.1,-9.3l7.3,.8l2,-9.1l6.7,3.1l4.8,-8l5.3,5.1l7.1,-6l3.4,6.5l8.7,-3.3l1,7.3l9.3,-.4l-1.4,7.2l9,2.7l-3.7,6.4l7.6,5.5l-5.5,4.8l5.3,7.7l-6.8,2.8l2.7,8.9l-7.4,.4Z" class="g4_8"/>
<image clip-path="url(#c6_8)" preserveAspectRatio="none" x="188" y="64" width="57" height="57" xlink:href="img/7.jpg"/>
<image x="206" y="114" width="21" height="3" xlink:href="shade/2.png"/>
<image x="206" y="108" width="21" height="6" xlink:href="shade/3.png"/>
</svg>