<?xml version="1.0" encoding="UTF-8" standalone="no"?>
<!DOCTYPE svg PUBLIC "-//W3C//DTD SVG 1.1//EN"
"http://www.w3.org/Graphics/SVG/1.1/DTD/svg11.dtd">
<svg viewBox="0 0 909 1286" version="1.1" xmlns="http://www.w3.org/2000/svg" xmlns:xlink="http://www.w3.org/1999/xlink">
<defs>
<clipPath id="c0_2"><path d="M574.6,322V158.1h229V322Z"/></clipPath>
<clipPath id="c1_2"><path d="M219.3,499.1v-159h229v159Z"/></clipPath>
<clipPath id="c2_2"><path d="M574.6,700.4V516.7h229V700.4Z"/></clipPath>
<clipPath id="c3_2"><path d="M219.3,883V706.3h229V883Z"/></clipPath>
<clipPath id="c4_2"><path d="M573.2,1069.7V891.9H804.9v177.8Z"/></clipPath>
<clipPath id="c5_2"><path d="M229.8,1244.8V1083.7H437.9v161.1Z"/></clipPath>
<clipPath id="c6_2"><path d="M216.6,120.7c-15.7,0,-28.4,-12.8,-28.4,-28.5c0,-15.7,12.7,-28.4,28.4,-28.4c15.7,0,28.4,12.7,28.4,28.4c0,15.7,-12.7,28.5,-28.4,28.5Z"/></clipPath>
<style type="text/css"><![CDATA[
.g0_2{
fill: #2E3092;
}
.g1_2{
fill: #707070;
}
.g2_2{
fill: #0160AE;
}
.g3_2{
fill: #F15921;
}
.g4_2{
fill: none;
stroke: #23408D;
stroke-width: 0.763;
stroke-linecap: round;
stroke-linejoin: round;
stroke-miterlimit: 2;
}
]]></style>
</defs>
<path fill-rule="evenodd" d="M752.5,327.4H256.6c-.8,0,-1.4,-.6,-1.4,-1.4c0,-.7,.6,-1.4,1.4,-1.4H752.5c.8,0,1.4,.7,1.4,1.4c0,.8,-.6,1.4,-1.4,1.4Z" class="g0_2"/>
<path fill-rule="evenodd" d="M641.1,320.4H368c-3.1,0,-5.6,2.5,-5.6,5.6c0,3.1,2.5,5.6,5.6,5.6H641.1c3.1,0,5.6,-2.5,5.6,-5.6c0,-3.1,-2.5,-5.6,-5.6,-5.6Z" class="g1_2"/>
<path fill-rule="evenodd" d="M467,151.4H200.6c-7.8,0,-14.3,6.5,-14.3,14.4c0,7.8,6.5,14.3,14.3,14.3H467c7.9,0,14.3,-6.5,14.3,-14.3c0,-7.9,-6.4,-14.4,-14.3,-14.4Z" class="g0_2"/>
<path fill-rule="evenodd" d="M752.5,515.4H256.6c-.8,0,-1.4,-.6,-1.4,-1.4c0,-.7,.6,-1.4,1.4,-1.4H752.5c.8,0,1.4,.7,1.4,1.4c0,.8,-.6,1.4,-1.4,1.4Z" class="g0_2"/>
<path fill-rule="evenodd" d="M641.1,508.4H368c-3.1,0,-5.6,2.5,-5.6,5.6c0,3.1,2.5,5.6,5.6,5.6H641.1c3.1,0,5.6,-2.5,5.6,-5.6c0,-3.1,-2.5,-5.6,-5.6,-5.6Z" class="g1_2"/>
<path fill-rule="evenodd" d="M752.5,703.4H256.6c-.8,0,-1.4,-.6,-1.4,-1.4c0,-.7,.6,-1.3,1.4,-1.3H752.5c.8,0,1.4,.6,1.4,1.3c0,.8,-.6,1.4,-1.4,1.4Z" class="g0_2"/>
<path fill-rule="evenodd" d="M641.1,696.4H368c-3.1,0,-5.6,2.6,-5.6,5.6c0,3.1,2.5,5.7,5.6,5.7H641.1c3.1,0,5.6,-2.6,5.6,-5.7c0,-3,-2.5,-5.6,-5.6,-5.6Z" class="g1_2"/>
<path fill-rule="evenodd" d="M752.5,891.4H256.6c-.8,0,-1.4,-.6,-1.4,-1.3c0,-.8,.6,-1.4,1.4,-1.4H752.5c.8,0,1.4,.6,1.4,1.4c0,.7,-.6,1.3,-1.4,1.3Z" class="g0_2"/>
<path fill-rule="evenodd" d="M641.1,884.4H368c-3.1,0,-5.6,2.6,-5.6,5.7c0,3,2.5,5.6,5.6,5.6H641.1c3.1,0,5.6,-2.6,5.6,-5.6c0,-3.1,-2.5,-5.7,-5.6,-5.7Z" class="g1_2"/>
<path fill-rule="evenodd" d="M822.3,356.1H555.9c-7.9,0,-14.3,6.5,-14.3,14.4c0,7.8,6.4,14.3,14.3,14.3H822.3c7.8,0,14.3,-6.5,14.3,-14.3c0,-7.9,-6.5,-14.4,-14.3,-14.4Z" class="g0_2"/>
<path fill-rule="evenodd" d="M467,540.9H200.6c-7.8,0,-14.3,6.4,-14.3,14.3c0,7.8,6.5,14.3,14.3,14.3H467c7.9,0,14.3,-6.5,14.3,-14.3c0,-7.9,-6.4,-14.3,-14.3,-14.3Z" class="g0_2"/>
<path fill-rule="evenodd" d="M822.3,732.1H555.9c-7.9,0,-14.3,6.5,-14.3,14.3c0,7.9,6.4,14.3,14.3,14.3H822.3c7.8,0,14.3,-6.4,14.3,-14.3c0,-7.8,-6.5,-14.3,-14.3,-14.3Z" class="g0_2"/>
<path fill-rule="evenodd" d="M467,920.2H200.6c-7.8,0,-14.3,6.4,-14.3,14.3c0,7.9,6.5,14.3,14.3,14.3H467c7.9,0,14.3,-6.4,14.3,-14.3c0,-7.9,-6.4,-14.3,-14.3,-14.3Z" class="g0_2"/>
<path fill-rule="evenodd" d="M752.5,1079.4H256.6c-.8,0,-1.4,-.6,-1.4,-1.3c0,-.8,.6,-1.4,1.4,-1.4H752.5c.8,0,1.4,.6,1.4,1.4c0,.7,-.6,1.3,-1.4,1.3Z" class="g0_2"/>
<path fill-rule="evenodd" d="M641.1,1072.5H368c-3.1,0,-5.6,2.5,-5.6,5.6c0,3.1,2.5,5.6,5.6,5.6H641.1c3.1,0,5.6,-2.5,5.6,-5.6c0,-3.1,-2.5,-5.6,-5.6,-5.6Z" class="g1_2"/>
<image clip-path="url(#c0_2)" preserveAspectRatio="none" x="575" y="158" width="229" height="164" xlink:href="img/1.png"/>
<image clip-path="url(#c1_2)" preserveAspectRatio="none" x="219" y="340" width="229" height="159" xlink:href="img/2.png"/>
<image clip-path="url(#c2_2)" preserveAspectRatio="none" x="574" y="516" width="230" height="185" xlink:href="img/3.png"/>
<image clip-path="url(#c3_2)" preserveAspectRatio="none" x="219" y="706" width="230" height="177" xlink:href="img/4.png"/>
<path fill-rule="evenodd" d="M555.9,1108.2H822.3c7.8,0,14.3,6.4,14.3,14.3c0,7.8,-6.5,14.3,-14.3,14.3H555.9c-7.9,0,-14.3,-6.5,-14.3,-14.3c0,-7.9,6.4,-14.3,14.3,-14.3Z" class="g0_2"/>
<image clip-path="url(#c4_2)" preserveAspectRatio="none" x="573" y="892" width="232" height="178" xlink:href="img/5.png"/>
<image clip-path="url(#c5_2)" preserveAspectRatio="none" x="230" y="1083" width="208" height="162" xlink:href="img/6.png"/>

</svg>